<?xml version="1.0" encoding="UTF-8"?>
<svg xmlns="http://www.w3.org/2000/svg" viewBox="0 0 1095 1095" width="1095" height="1095">
<path d="M278.94 66.95C457.95 66.94 636.95 66.93 815.95 66.93C815.84 89.12 815.72 111.31 815.61 133.5C838.15 133.83 860.69 134.17 883.23 134.5C883.32 155.96 883.41 177.41 883.5 198.87C906.25 198.91 929.01 198.96 951.76 199C951.78 382 951.79 565 951.8 748C929.19 748.17 906.57 748.33 883.95 748.5C883.7 766.96 883.45 785.43 883.21 803.89C680.31 803.84 477.4 803.78 274.5 803.73C274.17 816.95 273.83 830.16 273.5 843.37C253.23 843.51 232.97 843.64 212.7 843.78C212.44 607.17 212.18 370.56 211.92 133.95C234.22 133.8 256.52 133.65 278.82 133.5C278.86 111.32 278.9 89.13 278.94 66.95ZM774.27 199.2C751.22 199.2 728.18 199.2 705.14 199.2C705.14 220.98 705.14 242.76 705.14 264.55C683.4 264.55 661.67 264.55 639.94 264.55C639.94 286.65 639.94 308.76 639.94 330.86C661.69 330.86 683.44 330.86 705.19 330.86C705.19 352.36 705.19 373.87 705.19 395.37C728.22 395.37 751.25 395.37 774.27 395.37C774.27 373.86 774.27 352.35 774.27 330.84C795.82 330.84 817.37 330.84 838.92 330.84C838.92 308.75 838.92 286.65 838.92 264.56C817.37 264.56 795.82 264.56 774.27 264.56C774.27 242.77 774.27 220.99 774.27 199.2ZM583.03 395.34C559.42 395.34 535.8 395.34 512.19 395.34C512.19 419.86 512.19 444.39 512.19 468.91C489.8 468.91 467.42 468.91 445.03 468.91C445.03 483.81 445.03 498.71 445.03 513.6C426.5 513.6 407.97 513.6 389.44 513.6C389.44 535.86 389.44 558.12 389.44 580.38C407.97 580.38 426.51 580.38 445.04 580.38C445.04 593.01 445.04 605.63 445.04 618.26C467.43 618.26 489.82 618.26 512.21 618.26C512.21 641.37 512.21 664.48 512.21 687.6C535.82 687.6 559.44 687.6 583.06 687.6C583.06 664.49 583.06 641.39 583.06 618.28C605.46 618.28 627.87 618.28 650.27 618.28C650.27 605.65 650.27 593.03 650.27 580.4C668.73 580.4 687.19 580.4 705.65 580.4C705.65 558.43 705.65 536.47 705.65 514.5C687.2 513.98 668.74 513.47 650.28 512.95C650.28 498.28 650.28 483.6 650.28 468.92C627.86 468.92 605.45 468.92 583.03 468.92C583.03 444.39 583.03 419.87 583.03 395.34Z" fill="#585cf9" fill-rule="evenodd" stroke="#585cf9" stroke-width="0.25" stroke-linejoin="round"/>
<path d="M278.94 66.95C278.9 89.13 278.86 111.32 278.82 133.5C256.52 133.65 234.22 133.8 211.92 133.95C212.11 111.66 212.31 89.36 212.5 67.06C234.65 67.02 256.8 66.99 278.94 66.95ZM815.95 66.93C829.37 65.9 843.05 66.95 856.5 66.87C865.03 66.81 874.92 65.31 883.14 67.5C883.42 89.5 883.69 111.5 883.97 133.5C906.48 133.77 928.99 134.04 951.5 134.31C951.59 155.87 951.68 177.44 951.76 199C929.01 198.96 906.25 198.91 883.5 198.87C883.41 177.41 883.32 155.96 883.23 134.5C860.69 134.17 838.15 133.83 815.61 133.5C815.72 111.31 815.84 89.12 815.95 66.93ZM211.92 133.95C212.18 370.56 212.44 607.17 212.7 843.78C212.63 865.1 212.57 886.43 212.5 907.76C232.83 907.89 253.17 908.03 273.5 908.17C273.78 920.61 274.07 933.06 274.35 945.5C477.23 945.5 680.11 945.5 882.99 945.5C883.06 898.3 883.13 851.09 883.21 803.89C883.45 785.43 883.7 766.96 883.95 748.5C906.57 748.33 929.19 748.17 951.8 748C951.71 813.83 951.63 879.67 951.54 945.5C928.87 945.83 906.21 946.17 883.55 946.5C883.4 964.5 883.25 982.5 883.1 1000.5C659.57 1000.57 436.03 1000.64 212.5 1000.71C212.17 982.46 211.83 964.22 211.5 945.97C188.87 945.81 166.25 945.66 143.62 945.5C143.58 675.07 143.54 404.65 143.5 134.22C166.31 134.13 189.11 134.04 211.92 133.95ZM774.27 199.2C774.27 220.99 774.27 242.77 774.27 264.56C795.82 264.56 817.37 264.56 838.92 264.56C838.92 286.65 838.92 308.75 838.92 330.84C817.37 330.84 795.82 330.84 774.27 330.84C774.27 352.35 774.27 373.86 774.27 395.37C751.25 395.37 728.22 395.37 705.19 395.37C705.19 373.87 705.19 352.36 705.19 330.86C683.44 330.86 661.69 330.86 639.94 330.86C639.94 308.76 639.94 286.65 639.94 264.55C661.67 264.55 683.4 264.55 705.14 264.55C705.14 242.76 705.14 220.98 705.14 199.2C728.18 199.2 751.22 199.2 774.27 199.2ZM583.03 395.34C583.03 419.87 583.03 444.39 583.03 468.92C605.45 468.92 627.86 468.92 650.28 468.92C650.28 483.6 650.28 498.28 650.28 512.95C668.74 513.47 687.2 513.98 705.65 514.5C705.65 536.47 705.65 558.43 705.65 580.4C687.19 580.4 668.73 580.4 650.27 580.4C650.27 593.03 650.27 605.65 650.27 618.28C627.87 618.28 605.46 618.28 583.06 618.28C583.06 641.39 583.06 664.49 583.06 687.6C559.44 687.6 535.82 687.6 512.21 687.6C512.21 664.48 512.21 641.37 512.21 618.26C489.82 618.26 467.43 618.26 445.04 618.26C445.04 605.63 445.04 593.01 445.04 580.38C426.51 580.38 407.97 580.38 389.44 580.38C389.44 558.12 389.44 535.86 389.44 513.6C407.97 513.6 426.5 513.6 445.03 513.6C445.03 498.71 445.03 483.81 445.03 468.91C467.42 468.91 489.8 468.91 512.19 468.91C512.19 444.39 512.19 419.86 512.19 395.34C535.8 395.34 559.42 395.34 583.03 395.34Z" fill="#2d2695" fill-rule="evenodd" stroke="#2d2695" stroke-width="0.25" stroke-linejoin="round"/>
<path d="M883.21 803.89C883.13 851.09 883.06 898.3 882.99 945.5C680.11 945.5 477.23 945.5 274.35 945.5C274.07 933.06 273.78 920.61 273.5 908.17C253.17 908.03 232.83 907.89 212.5 907.76C212.57 886.43 212.63 865.1 212.7 843.78C232.97 843.64 253.23 843.51 273.5 843.37C273.83 830.16 274.17 816.95 274.5 803.73C477.4 803.78 680.31 803.84 883.21 803.89Z" fill="#ffffff" fill-rule="evenodd" stroke="#ffffff" stroke-width="0.25" stroke-linejoin="round"/>
</svg>